# xmcd
#
# Track frame offsets:
#	182
#	50115
#	62140
#	76982
#	89657
#	146435
#	162447
#	173707
#	187085
#	196245
#	223440
#	236355
#	251352
#	262462
#	276587
#	293327
#
# Disc length: 4114
#
# Revision: 1
# Processed by: cddbd v1.5.1PL0 Copyright (c) Steve Scherf et al.
# Submitted via: Feurio! 1.63 - http://www.feurio.com
# Normalized: r0:DSETVAR2
#
DISCID=fe101010
DTITLE=Various Artist - Blues Collection I
DYEAR=1900
DGENRE=blues
TTITLE0=John Mayall´s Bluesbreakers - Room To Move
TTITLE1=Etta James - I´d Rather Go Blind
TTITLE2=John Lee Hooker - Sugar Mama
TTITLE3=Howling Wolf - Spoonful
TTITLE4=George Bensen - All Blues
TTITLE5=Screamin´Jay Hawkins - I Put A Spell On You
TTITLE6=Little Richard - Send me some Loving
TTITLE7=Elmore James - Dust My Broom
TTITLE8=Roy Orbison - Mean Little Mama
TTITLE9=Chuck Berry - London Berry Blues
TTITLE10=Albert King - California Blues
TTITLE11=Little Milton - Kansas City
TTITLE12=Jerry Lee Jewis - Mean Woman Blues
TTITLE13=Little Walter - Blues With A Feeling
TTITLE14=Aaron Neville - Cey Me A River
TTITLE15=Muddy Waters - Got My Mojo Working
EXTD=
EXTT0=
EXTT1=
EXTT2=
EXTT3=
EXTT4=
EXTT5=
EXTT6=
EXTT7=
EXTT8=
EXTT9=
EXTT10=
EXTT11=
EXTT12=
EXTT13=
EXTT14=
EXTT15=
PLAYORDER=
